<?xml version="1.0" encoding="UTF-8" standalone="no"?><svg xmlns="http://www.w3.org/2000/svg" xmlns:xlink="http://www.w3.org/1999/xlink" contentScriptType="application/ecmascript" contentStyleType="text/css" height="516px" preserveAspectRatio="none" style="width:443px;height:516px;" version="1.1" viewBox="0 0 443 516" width="443px" zoomAndPan="magnify"><defs><filter height="300%" id="f1asx0bqxoc54e" width="300%" x="-1" y="-1"><feGaussianBlur result="blurOut" stdDeviation="2.0"/><feColorMatrix in="blurOut" result="blurOut2" type="matrix" values="0 0 0 0 0 0 0 0 0 0 0 0 0 0 0 0 0 0 .4 0"/><feOffset dx="4.0" dy="4.0" in="blurOut2" result="blurOut3"/><feBlend in="SourceGraphic" in2="blurOut3" mode="normal"/></filter></defs><g><!--class 用户--><rect fill="#FEFECE" filter="url(#f1asx0bqxoc54e)" height="93.0688" id="用户" style="stroke: #A80036; stroke-width: 1.5;" width="58" x="138.3944" y="8"/><ellipse cx="154.2944" cy="24" fill="#ADD1B2" rx="11" ry="11" style="stroke: #A80036; stroke-width: 1.0;"/><path d="M152.8725,29.3594 Q151.0132,29.3594 149.9194,27.9688 Q148.8257,26.5781 148.8257,23.5938 Q148.8257,21.0625 149.9897,19.4063 Q151.1538,17.75 153.1382,17.75 Q154.6069,17.75 155.0757,17.875 Q155.5444,18.0781 155.5444,18.0781 Q155.5444,18.0781 155.5444,18.0078 Q155.5444,17.9375 156.1538,17.0156 L157.2007,20.6719 L155.8725,21.0781 Q155.4038,19.5313 154.7397,18.8672 Q154.0757,18.2031 153.0132,18.2031 Q152.6225,18.2031 151.8569,19.7344 Q151.0913,21.2656 151.0913,23.5156 Q151.0913,25.9844 151.7553,27.375 Q152.4194,28.7656 152.9507,28.7656 Q154.0132,28.7656 154.771,28 Q155.5288,27.2344 155.8725,25.5781 L157.2007,26.1719 Q156.8725,27.5781 155.9741,28.4688 Q155.0757,29.3594 152.8725,29.3594 Z "/><text fill="#000000" font-family="sans-serif" font-size="12" lengthAdjust="spacingAndGlyphs" textLength="24" x="168.4944" y="29.5576">用户</text><line style="stroke: #A80036; stroke-width: 1.5;" x1="139.3944" x2="195.3944" y1="40" y2="40"/><text fill="#000000" font-family="sans-serif" font-size="11" lengthAdjust="spacingAndGlyphs" textLength="33" x="144.3944" y="56.606">用户名</text><text fill="#000000" font-family="sans-serif" font-size="11" lengthAdjust="spacingAndGlyphs" textLength="22" x="144.3944" y="71.6289">邮箱</text><text fill="#000000" font-family="sans-serif" font-size="11" lengthAdjust="spacingAndGlyphs" textLength="46" x="144.3944" y="86.6519">密码hash</text><line style="stroke: #A80036; stroke-width: 1.5;" x1="139.3944" x2="195.3944" y1="93.0688" y2="93.0688"/><!--class 书评--><rect fill="#FEFECE" filter="url(#f1asx0bqxoc54e)" height="78.0459" id="书评" style="stroke: #A80036; stroke-width: 1.5;" width="56" x="220.3944" y="187.5"/><ellipse cx="235.3944" cy="203.5" fill="#ADD1B2" rx="11" ry="11" style="stroke: #A80036; stroke-width: 1.0;"/><path d="M233.9725,208.8594 Q232.1132,208.8594 231.0194,207.4688 Q229.9257,206.0781 229.9257,203.0938 Q229.9257,200.5625 231.0897,198.9063 Q232.2538,197.25 234.2382,197.25 Q235.7069,197.25 236.1757,197.375 Q236.6444,197.5781 236.6444,197.5781 Q236.6444,197.5781 236.6444,197.5078 Q236.6444,197.4375 237.2538,196.5156 L238.3007,200.1719 L236.9725,200.5781 Q236.5038,199.0313 235.8397,198.3672 Q235.1757,197.7031 234.1132,197.7031 Q233.7225,197.7031 232.9569,199.2344 Q232.1913,200.7656 232.1913,203.0156 Q232.1913,205.4844 232.8553,206.875 Q233.5194,208.2656 234.0507,208.2656 Q235.1132,208.2656 235.871,207.5 Q236.6288,206.7344 236.9725,205.0781 L238.3007,205.6719 Q237.9725,207.0781 237.0741,207.9688 Q236.1757,208.8594 233.9725,208.8594 Z "/><text fill="#000000" font-family="sans-serif" font-size="12" lengthAdjust="spacingAndGlyphs" textLength="24" x="249.3944" y="209.0576">书评</text><line style="stroke: #A80036; stroke-width: 1.5;" x1="221.3944" x2="275.3944" y1="219.5" y2="219.5"/><text fill="#000000" font-family="sans-serif" font-size="11" lengthAdjust="spacingAndGlyphs" textLength="44" x="226.3944" y="236.106">创建时间</text><text fill="#000000" font-family="sans-serif" font-size="11" lengthAdjust="spacingAndGlyphs" textLength="22" x="226.3944" y="251.1289">内容</text><line style="stroke: #A80036; stroke-width: 1.5;" x1="221.3944" x2="275.3944" y1="257.5459" y2="257.5459"/><!--class 书评评--><rect fill="#FEFECE" filter="url(#f1asx0bqxoc54e)" height="78.0459" id="书评评" style="stroke: #A80036; stroke-width: 1.5;" width="68" x="283.3944" y="15.5"/><ellipse cx="298.3944" cy="31.5" fill="#ADD1B2" rx="11" ry="11" style="stroke: #A80036; stroke-width: 1.0;"/><path d="M296.9725,36.8594 Q295.1132,36.8594 294.0194,35.4688 Q292.9257,34.0781 292.9257,31.0938 Q292.9257,28.5625 294.0897,26.9063 Q295.2538,25.25 297.2382,25.25 Q298.7069,25.25 299.1757,25.375 Q299.6444,25.5781 299.6444,25.5781 Q299.6444,25.5781 299.6444,25.5078 Q299.6444,25.4375 300.2538,24.5156 L301.3007,28.1719 L299.9725,28.5781 Q299.5038,27.0313 298.8397,26.3672 Q298.1757,25.7031 297.1132,25.7031 Q296.7225,25.7031 295.9569,27.2344 Q295.1913,28.7656 295.1913,31.0156 Q295.1913,33.4844 295.8553,34.875 Q296.5194,36.2656 297.0507,36.2656 Q298.1132,36.2656 298.871,35.5 Q299.6288,34.7344 299.9725,33.0781 L301.3007,33.6719 Q300.9725,35.0781 300.0741,35.9688 Q299.1757,36.8594 296.9725,36.8594 Z "/><text fill="#000000" font-family="sans-serif" font-size="12" lengthAdjust="spacingAndGlyphs" textLength="36" x="312.3944" y="37.0576">书评评</text><line style="stroke: #A80036; stroke-width: 1.5;" x1="284.3944" x2="350.3944" y1="47.5" y2="47.5"/><text fill="#000000" font-family="sans-serif" font-size="11" lengthAdjust="spacingAndGlyphs" textLength="44" x="289.3944" y="64.106">创建时间</text><text fill="#000000" font-family="sans-serif" font-size="11" lengthAdjust="spacingAndGlyphs" textLength="22" x="289.3944" y="79.1289">内容</text><line style="stroke: #A80036; stroke-width: 1.5;" x1="284.3944" x2="350.3944" y1="85.5459" y2="85.5459"/><!--class 组--><rect fill="#FEFECE" filter="url(#f1asx0bqxoc54e)" height="93.0688" id="组" style="stroke: #A80036; stroke-width: 1.5;" width="56" x="6.3944" y="8"/><ellipse cx="26.7944" cy="24" fill="#ADD1B2" rx="11" ry="11" style="stroke: #A80036; stroke-width: 1.0;"/><path d="M25.3725,29.3594 Q23.5132,29.3594 22.4194,27.9688 Q21.3257,26.5781 21.3257,23.5938 Q21.3257,21.0625 22.4897,19.4063 Q23.6538,17.75 25.6382,17.75 Q27.1069,17.75 27.5757,17.875 Q28.0444,18.0781 28.0444,18.0781 Q28.0444,18.0781 28.0444,18.0078 Q28.0444,17.9375 28.6538,17.0156 L29.7007,20.6719 L28.3725,21.0781 Q27.9038,19.5313 27.2397,18.8672 Q26.5757,18.2031 25.5132,18.2031 Q25.1225,18.2031 24.3569,19.7344 Q23.5913,21.2656 23.5913,23.5156 Q23.5913,25.9844 24.2553,27.375 Q24.9194,28.7656 25.4507,28.7656 Q26.5132,28.7656 27.271,28 Q28.0288,27.2344 28.3725,25.5781 L29.7007,26.1719 Q29.3725,27.5781 28.4741,28.4688 Q27.5757,29.3594 25.3725,29.3594 Z "/><text fill="#000000" font-family="sans-serif" font-size="12" lengthAdjust="spacingAndGlyphs" textLength="12" x="41.9944" y="29.5576">组</text><line style="stroke: #A80036; stroke-width: 1.5;" x1="7.3944" x2="61.3944" y1="40" y2="40"/><text fill="#000000" font-family="sans-serif" font-size="11" lengthAdjust="spacingAndGlyphs" textLength="44" x="12.3944" y="56.606">创建时间</text><text fill="#000000" font-family="sans-serif" font-size="11" lengthAdjust="spacingAndGlyphs" textLength="22" x="12.3944" y="71.6289">组名</text><text fill="#000000" font-family="sans-serif" font-size="11" lengthAdjust="spacingAndGlyphs" textLength="22" x="12.3944" y="86.6519">简介</text><line style="stroke: #A80036; stroke-width: 1.5;" x1="7.3944" x2="61.3944" y1="93.0688" y2="93.0688"/><!--class 书单--><rect fill="#FEFECE" filter="url(#f1asx0bqxoc54e)" height="93.0688" id="书单" style="stroke: #A80036; stroke-width: 1.5;" width="56" x="82.3944" y="180"/><ellipse cx="97.3944" cy="196" fill="#ADD1B2" rx="11" ry="11" style="stroke: #A80036; stroke-width: 1.0;"/><path d="M95.9725,201.3594 Q94.1132,201.3594 93.0194,199.9688 Q91.9257,198.5781 91.9257,195.5938 Q91.9257,193.0625 93.0897,191.4063 Q94.2538,189.75 96.2382,189.75 Q97.7069,189.75 98.1757,189.875 Q98.6444,190.0781 98.6444,190.0781 Q98.6444,190.0781 98.6444,190.0078 Q98.6444,189.9375 99.2538,189.0156 L100.3007,192.6719 L98.9725,193.0781 Q98.5038,191.5313 97.8397,190.8672 Q97.1757,190.2031 96.1132,190.2031 Q95.7225,190.2031 94.9569,191.7344 Q94.1913,193.2656 94.1913,195.5156 Q94.1913,197.9844 94.8553,199.375 Q95.5194,200.7656 96.0507,200.7656 Q97.1132,200.7656 97.871,200 Q98.6288,199.2344 98.9725,197.5781 L100.3007,198.1719 Q99.9725,199.5781 99.0741,200.4688 Q98.1757,201.3594 95.9725,201.3594 Z "/><text fill="#000000" font-family="sans-serif" font-size="12" lengthAdjust="spacingAndGlyphs" textLength="24" x="111.3944" y="201.5576">书单</text><line style="stroke: #A80036; stroke-width: 1.5;" x1="83.3944" x2="137.3944" y1="212" y2="212"/><text fill="#000000" font-family="sans-serif" font-size="11" lengthAdjust="spacingAndGlyphs" textLength="44" x="88.3944" y="228.606">创建时间</text><text fill="#000000" font-family="sans-serif" font-size="11" lengthAdjust="spacingAndGlyphs" textLength="33" x="88.3944" y="243.6289">书单名</text><text fill="#000000" font-family="sans-serif" font-size="11" lengthAdjust="spacingAndGlyphs" textLength="22" x="88.3944" y="258.6519">简介</text><line style="stroke: #A80036; stroke-width: 1.5;" x1="83.3944" x2="137.3944" y1="265.0688" y2="265.0688"/><!--class 书籍--><rect fill="#FEFECE" filter="url(#f1asx0bqxoc54e)" height="153.1606" id="书籍" style="stroke: #A80036; stroke-width: 1.5;" width="56" x="82.3944" y="352"/><ellipse cx="97.3944" cy="368" fill="#ADD1B2" rx="11" ry="11" style="stroke: #A80036; stroke-width: 1.0;"/><path d="M95.9725,373.3594 Q94.1132,373.3594 93.0194,371.9688 Q91.9257,370.5781 91.9257,367.5938 Q91.9257,365.0625 93.0897,363.4063 Q94.2538,361.75 96.2382,361.75 Q97.7069,361.75 98.1757,361.875 Q98.6444,362.0781 98.6444,362.0781 Q98.6444,362.0781 98.6444,362.0078 Q98.6444,361.9375 99.2538,361.0156 L100.3007,364.6719 L98.9725,365.0781 Q98.5038,363.5313 97.8397,362.8672 Q97.1757,362.2031 96.1132,362.2031 Q95.7225,362.2031 94.9569,363.7344 Q94.1913,365.2656 94.1913,367.5156 Q94.1913,369.9844 94.8553,371.375 Q95.5194,372.7656 96.0507,372.7656 Q97.1132,372.7656 97.871,372 Q98.6288,371.2344 98.9725,369.5781 L100.3007,370.1719 Q99.9725,371.5781 99.0741,372.4688 Q98.1757,373.3594 95.9725,373.3594 Z "/><text fill="#000000" font-family="sans-serif" font-size="12" lengthAdjust="spacingAndGlyphs" textLength="24" x="111.3944" y="373.5576">书籍</text><line style="stroke: #A80036; stroke-width: 1.5;" x1="83.3944" x2="137.3944" y1="384" y2="384"/><text fill="#000000" font-family="sans-serif" font-size="11" lengthAdjust="spacingAndGlyphs" textLength="44" x="88.3944" y="400.606">导入时间</text><text fill="#000000" font-family="sans-serif" font-size="11" lengthAdjust="spacingAndGlyphs" textLength="22" x="88.3944" y="415.6289">书名</text><text fill="#000000" font-family="sans-serif" font-size="11" lengthAdjust="spacingAndGlyphs" textLength="22" x="88.3944" y="430.6519">简介</text><text fill="#000000" font-family="sans-serif" font-size="11" lengthAdjust="spacingAndGlyphs" textLength="23" x="88.3944" y="445.6748">ISBN</text><text fill="#000000" font-family="sans-serif" font-size="11" lengthAdjust="spacingAndGlyphs" textLength="22" x="88.3944" y="460.6978">类别</text><text fill="#000000" font-family="sans-serif" font-size="11" lengthAdjust="spacingAndGlyphs" textLength="33" x="88.3944" y="475.7207">责任人</text><text fill="#000000" font-family="sans-serif" font-size="11" lengthAdjust="spacingAndGlyphs" textLength="34" x="88.3944" y="490.7437">豆瓣url</text><line style="stroke: #A80036; stroke-width: 1.5;" x1="83.3944" x2="137.3944" y1="497.1606" y2="497.1606"/><!--class 书目录--><rect fill="#FEFECE" filter="url(#f1asx0bqxoc54e)" height="93.0688" id="书目录" style="stroke: #A80036; stroke-width: 1.5;" width="68" x="214.3944" y="382"/><ellipse cx="229.3944" cy="398" fill="#ADD1B2" rx="11" ry="11" style="stroke: #A80036; stroke-width: 1.0;"/><path d="M227.9725,403.3594 Q226.1132,403.3594 225.0194,401.9688 Q223.9257,400.5781 223.9257,397.5938 Q223.9257,395.0625 225.0897,393.4063 Q226.2538,391.75 228.2382,391.75 Q229.7069,391.75 230.1757,391.875 Q230.6444,392.0781 230.6444,392.0781 Q230.6444,392.0781 230.6444,392.0078 Q230.6444,391.9375 231.2538,391.0156 L232.3007,394.6719 L230.9725,395.0781 Q230.5038,393.5313 229.8397,392.8672 Q229.1757,392.2031 228.1132,392.2031 Q227.7225,392.2031 226.9569,393.7344 Q226.1913,395.2656 226.1913,397.5156 Q226.1913,399.9844 226.8553,401.375 Q227.5194,402.7656 228.0507,402.7656 Q229.1132,402.7656 229.871,402 Q230.6288,401.2344 230.9725,399.5781 L232.3007,400.1719 Q231.9725,401.5781 231.0741,402.4688 Q230.1757,403.3594 227.9725,403.3594 Z "/><text fill="#000000" font-family="sans-serif" font-size="12" lengthAdjust="spacingAndGlyphs" textLength="36" x="243.3944" y="403.5576">书目录</text><line style="stroke: #A80036; stroke-width: 1.5;" x1="215.3944" x2="281.3944" y1="414" y2="414"/><text fill="#000000" font-family="sans-serif" font-size="11" lengthAdjust="spacingAndGlyphs" textLength="44" x="220.3944" y="430.606">书内序位</text><text fill="#000000" font-family="sans-serif" font-size="11" lengthAdjust="spacingAndGlyphs" textLength="22" x="220.3944" y="445.6289">页码</text><text fill="#000000" font-family="sans-serif" font-size="11" lengthAdjust="spacingAndGlyphs" textLength="22" x="220.3944" y="460.6519">标题</text><line style="stroke: #A80036; stroke-width: 1.5;" x1="215.3944" x2="281.3944" y1="467.0688" y2="467.0688"/><!--link 用户 to 书评--><path d="M189.1014,101.057 C201.9414,128.005 218.0194,161.75 230.1924,187.299 " fill="none" id="用户-书评" style="stroke: #A80036; stroke-width: 1.0;"/><text fill="#000000" font-family="sans-serif" font-size="13" lengthAdjust="spacingAndGlyphs" textLength="26" x="211.3944" y="146.8979">创建</text><polygon fill="#000000" points="219.8944,155.7544,222.8944,161.7544,225.8944,155.7544,219.8944,155.7544" style="stroke: #000000; stroke-width: 1.0;"/><!--link 用户 to 书评评--><path d="M196.6724,54.5 C221.4824,54.5 257.0874,54.5 283.2024,54.5 " fill="none" id="用户-书评评" style="stroke: #A80036; stroke-width: 1.0;"/><text fill="#000000" font-family="sans-serif" font-size="13" lengthAdjust="spacingAndGlyphs" textLength="26" x="220.3944" y="48.3979">创建</text><polygon fill="#000000" points="249.3944,40.8772,255.3944,43.8772,249.3944,46.8772,249.3944,40.8772" style="stroke: #000000; stroke-width: 1.0;"/><!--link 书评 to 书目录--><path d="M248.3944,265.589 C248.3944,298.683 248.3944,346.692 248.3944,381.839 " fill="none" id="书评-书目录" style="stroke: #A80036; stroke-width: 1.0;"/><text fill="#000000" font-family="sans-serif" font-size="13" lengthAdjust="spacingAndGlyphs" textLength="52" x="249.3944" y="318.8979">评价范围</text><polygon fill="#000000" points="270.8944,327.7544,273.8944,333.7544,276.8944,327.7544,270.8944,327.7544" style="stroke: #000000; stroke-width: 1.0;"/><!--link 书单 to 书评--><path d="M138.6534,226.5 C162.4684,226.5 196.3694,226.5 220.1724,226.5 " fill="none" id="书单-书评" style="stroke: #A80036; stroke-width: 1.0;"/><polygon fill="#000000" points="166.8944,212.8772,160.8944,215.8772,166.8944,218.8772,166.8944,212.8772" style="stroke: #000000; stroke-width: 1.0;"/><text fill="#000000" font-family="sans-serif" font-size="13" lengthAdjust="spacingAndGlyphs" textLength="26" x="172.8944" y="220.3979">属于</text><!--link 书评评 to 书评--><path d="M308.5644,93.885 C304.0124,111.326 297.8434,132.031 290.3944,150 C285.2254,162.47 278.4994,175.504 271.9504,187.164 " fill="none" id="书评评-书评" style="stroke: #A80036; stroke-width: 1.0;"/><text fill="#000000" font-family="sans-serif" font-size="13" lengthAdjust="spacingAndGlyphs" textLength="26" x="298.3944" y="146.8979">评价</text><polygon fill="#000000" points="306.8944,155.7544,309.8944,161.7544,312.8944,155.7544,306.8944,155.7544" style="stroke: #000000; stroke-width: 1.0;"/><!--link 书评评 to 书评评--><path d="M351.4764,39.04 C369.7484,36.413 386.3944,41.566 386.3944,54.5 C386.3944,67.434 369.7484,72.587 351.4764,69.96 " fill="none" id="书评评-书评评" style="stroke: #A80036; stroke-width: 1.0;"/><polygon fill="#000000" points="394.3944,53.3772,388.3944,56.3772,394.3944,59.3772,394.3944,53.3772" style="stroke: #000000; stroke-width: 1.0;"/><text fill="#000000" font-family="sans-serif" font-size="13" lengthAdjust="spacingAndGlyphs" textLength="26" x="405.3944" y="60.8979">评价</text><!--link 书籍 to 书目录--><path d="M138.6534,428.5 C160.5754,428.5 191.0444,428.5 214.3164,428.5 " fill="none" id="书籍-书目录" style="stroke: #A80036; stroke-width: 1.0;"/><polygon fill="#000000" points="163.8944,414.8772,157.8944,417.8772,163.8944,420.8772,163.8944,414.8772" style="stroke: #000000; stroke-width: 1.0;"/><text fill="#000000" font-family="sans-serif" font-size="13" lengthAdjust="spacingAndGlyphs" textLength="26" x="169.8944" y="422.3979">属于</text><!--link 组 to 用户--><path d="M62.5593,70.512 C68.1421,72.991 74.0786,75.168 79.8944,76.5 C97.6566,80.569 103.1152,80.494 120.8944,76.5 C126.7324,75.189 132.7004,73.057 138.3294,70.624 " fill="none" id="组-用户" style="stroke: #A80036; stroke-width: 1.0;"/><polygon fill="#000000" points="87.8944,65.8772,81.8944,68.8772,87.8944,71.8772,87.8944,65.8772" style="stroke: #000000; stroke-width: 1.0;"/><text fill="#000000" font-family="sans-serif" font-size="13" lengthAdjust="spacingAndGlyphs" textLength="26" x="93.8944" y="73.3979">属于</text><!--link 组 to 用户--><path d="M62.6003,54.5 C84.8658,54.5 115.8194,54.5 138.3094,54.5 " fill="none" id="组-用户-1" style="stroke: #A80036; stroke-width: 1.0;"/><polygon fill="#000000" points="87.8944,40.8772,81.8944,43.8772,87.8944,46.8772,87.8944,40.8772" style="stroke: #000000; stroke-width: 1.0;"/><text fill="#000000" font-family="sans-serif" font-size="13" lengthAdjust="spacingAndGlyphs" textLength="26" x="93.8944" y="48.3979">创建</text><!--link 用户 to 书单--><path d="M152.1194,101.057 C143.9414,125.448 133.8964,155.407 125.7114,179.817 " fill="none" id="用户-书单" style="stroke: #A80036; stroke-width: 1.0;"/><text fill="#000000" font-family="sans-serif" font-size="13" lengthAdjust="spacingAndGlyphs" textLength="26" x="142.3944" y="146.8979">创建</text><polygon fill="#000000" points="150.8944,155.7544,153.8944,161.7544,156.8944,155.7544,150.8944,155.7544" style="stroke: #000000; stroke-width: 1.0;"/><!--link 用户 to 书单--><path d="M138.2784,74.077 C120.1994,87.451 98.5374,107.276 88.3944,131 C81.8385,146.334 83.6433,163.941 88.3228,179.769 " fill="none" id="用户-书单-1" style="stroke: #A80036; stroke-width: 1.0;"/><text fill="#000000" font-family="sans-serif" font-size="13" lengthAdjust="spacingAndGlyphs" textLength="26" x="89.3944" y="146.8979">增删</text><polygon fill="#000000" points="97.8944,155.7544,100.8944,161.7544,103.8944,155.7544,97.8944,155.7544" style="stroke: #000000; stroke-width: 1.0;"/><!--link 书单 to 组--><path d="M82.0409,205.963 C65.0526,192.454 44.9516,172.838 35.3944,150 C29.0607,134.865 27.5226,117.134 28,101.146 " fill="none" id="书单-组" style="stroke: #A80036; stroke-width: 1.0;"/><polygon fill="#000000" points="44.8944,142,47.8944,136,50.8944,142,44.8944,142" style="stroke: #000000; stroke-width: 1.0;"/><text fill="#000000" font-family="sans-serif" font-size="13" lengthAdjust="spacingAndGlyphs" textLength="26" x="36.3944" y="159.8979">属于</text><text fill="#000000" font-family="sans-serif" font-size="13" lengthAdjust="spacingAndGlyphs" textLength="22" x="52.2932" y="198.2118">1..n</text><text fill="#000000" font-family="sans-serif" font-size="13" lengthAdjust="spacingAndGlyphs" textLength="7" x="19.6086" y="123.8471">1</text><!--link 书单 to 书籍--><path d="M110.3944,273.133 C110.3944,296.422 110.3944,325.362 110.3944,351.87 " fill="none" id="书单-书籍" style="stroke: #A80036; stroke-width: 1.0;"/><text fill="#000000" font-family="sans-serif" font-size="13" lengthAdjust="spacingAndGlyphs" textLength="26" x="111.3944" y="318.8979">包含</text><polygon fill="#000000" points="119.8944,327.7544,122.8944,333.7544,125.8944,327.7544,119.8944,327.7544" style="stroke: #000000; stroke-width: 1.0;"/><!--
@startuml main
class 用户 {
    用户名
    邮箱
    密码hash
}
class 书评 {
    创建时间
    内容
}
class 书评评 {
    创建时间
    内容
}
class 组 {
    创建时间
    组名
    简介
}
class 书单 {
    创建时间
    书单名
    简介
}
class 书籍 {
    导入时间
    书名
    简介
    ISBN
    类别
    责任人
    豆瓣url
}
class 书目录 {
    书内序位
    页码
    标题    
}

用户 - 书评: 创建 >
用户 - 书评评: 创建 >

书评 -down- 书目录: 评价范围 >
书评 -left- 书单: 属于 >
书评 -up- 书评评: 评价 <
书评评 - 书评评: 评价 > 
书目录 -left- 书籍: 属于 >
用户  -left-  组: 属于 > 
用户  -left-  组: 创建 > 
用户 -down- 书单: 创建 > 
用户 - 书单: 增删 > 

书单 "1..n" -down- "1" 组: 属于 > 

书单 -down- 书籍: 包含 > 

@enduml

PlantUML version 1.2019.09(Tue Aug 27 00:19:51 CST 2019)
(GPL source distribution)
Java Runtime: Java(TM) SE Runtime Environment
JVM: Java HotSpot(TM) 64-Bit Server VM
Java Version: 10.0.2+13
Operating System: Windows 10
OS Version: 10.0
Default Encoding: GBK
Language: zh
Country: CN
--></g></svg>